<?xml version="1.0" encoding="UTF-8"?>
<svg width="16" height="16" viewBox="0 0 16 16" fill="none" xmlns="http://www.w3.org/2000/svg">
  <path d="M8 1C4.13401 1 1 4.13401 1 8C1 11.866 4.13401 15 8 15C11.866 15 15 11.866 15 8C15 4.13401 11.866 1 8 1Z" stroke="#4FC0E8" stroke-width="1.5"/>
  <path d="M5 6C5 5.44772 5.44772 5 6 5H10C10.5523 5 11 5.44772 11 6V10C11 10.5523 10.5523 11 10 11H6C5.44772 11 5 10.5523 5 10V6Z" fill="#4FC0E8"/>
  <path d="M7 3.5C7 3.22386 7.22386 3 7.5 3H8.5C8.77614 3 9 3.22386 9 3.5V4.5C9 4.77614 8.77614 5 8.5 5H7.5C7.22386 5 7 4.77614 7 4.5V3.5Z" fill="#4FC0E8"/>
  <path d="M7 11.5C7 11.2239 7.22386 11 7.5 11H8.5C8.77614 11 9 11.2239 9 11.5V12.5C9 12.7761 8.77614 13 8.5 13H7.5C7.22386 13 7 12.7761 7 12.5V11.5Z" fill="#4FC0E8"/>
  <path d="M3.5 7C3.22386 7 3 7.22386 3 7.5V8.5C3 8.77614 3.22386 9 3.5 9H4.5C4.77614 9 5 8.77614 5 8.5V7.5C5 7.22386 4.77614 7 4.5 7H3.5Z" fill="#4FC0E8"/>
  <path d="M11.5 7C11.2239 7 11 7.22386 11 7.5V8.5C11 8.77614 11.2239 9 11.5 9H12.5C12.7761 9 13 8.77614 13 8.5V7.5C13 7.22386 12.7761 7 12.5 7H11.5Z" fill="#4FC0E8"/>
  <circle cx="8" cy="8" r="1" fill="white"/>
</svg>