<?xml version="1.0" encoding="UTF-8"?>
<svg width="512" height="512" version="1.1" viewBox="0 0 135.47 135.47" xmlns="http://www.w3.org/2000/svg">
 <g>
  <g transform="translate(0 -161.53)">
   <circle cx="67.733" cy="229.27" r="67.733" fill="#4a6fa5" stroke-width=".26458"/>
  </g>
  <g>
   <path d="m67.733 56.885c-11.747 0-21.486 9.5254-21.486 21.27 0 11.747 9.7385 21.486 21.486 21.486 11.747 0 21.486-9.7385 21.486-21.486 0-11.747-9.7385-21.27-21.486-21.27zm0 3.3866c9.9507 0 17.88 7.9292 17.88 17.88 0 9.9507-7.9292 17.88-17.88 17.88s-17.88-7.9292-17.88-17.88c0-9.9507 7.9292-17.88 17.88-17.88z" fill="#f5f0e8" stroke-width=".26458"/>
   <path d="m67.733 27.781c-27.516 0-49.953 22.437-49.953 49.953 0 3.3866 0.33866 6.7732 1.0152 10.001l1.8487-0.50798c-0.6774-3.0479-1.0158-6.2726-1.0158-9.4929 0-25.667 20.92-46.587 46.587-46.587 25.667 0 46.587 20.92 46.587 46.587 0 3.0698-0.33723 6.1408-0.84724 9.0701l1.8487 0.50798c0.6774-3.0479 1.0152-6.2726 1.0152-9.577 0.15-27.38-21.86-49.95-49.03-49.95z" fill="#f5f0e8" stroke-width=".26458"/>
   <path d="m67.733 27.781c-27.516 0-49.953 22.437-49.953 49.953 0 6.7732 1.354 13.207 3.7245 19.1l2.5465-0.33724c-0.20532-0.8914-0.4012-1.8-0.58583-2.7116-1.8595-8.8574-1.7258-17.966 0.37858-26.723 0.37679-1.5658 0.79409-3.1207 1.2571-4.6639 0.50798-1.693 1.1074-3.3627 1.7868-4.9873 0.67732-1.6233 1.439-3.2261 2.2836-4.7804 0.84724-1.5542 1.7629-3.0595 2.7344-4.5151 0.97178-1.456 2.0204-2.86 3.1176-4.2102 1.0972-1.3499 2.2472-2.6519 3.4518-3.9009 1.2049-1.2491 2.4593-2.4368 3.7629-3.5608 1.3039-1.124 2.6548-2.2284 4.0498-3.2481 1.3946-1.0197 2.8397-1.9686 4.3339-2.8242 1.494-0.85582 3.0374-1.6395 4.6268-2.3507 1.5895-0.71155 3.2113-1.3499 4.8726-1.88 1.9028-0.61064 3.8482-1.0923 5.8188-1.456 1.1874-0.2175 2.3788-0.37825 3.582-0.50798-3.1722-0.28723-6.381-0.43567-9.627-0.43567z" fill="#c78c32" stroke-width=".26458"/>
   <path d="m112.71 94.126-1.1988 1.0742c-10.663 11.747-25.836 18.435-41.844 18.435-15.841 0-31.016-6.6886-41.821-18.435l-1.1798-1.0742-2.5468 0.33936 0.50762 0.86621c12.066 13.376 29.266 21.098 47.323 21.098 18.055 0 35.256-7.7219 47.323-21.098l0.50798-0.86621z" fill="#f5f0e8" stroke-width=".26458"/>
   <path d="m76.258 37.271c0.05292 17.103-15.368 22.857-19.202 20.155-3.8328-2.7016 1.8467-22.857 19.202-20.155z" fill="#f5f0e8" stroke-width=".26458"/>
   <g stroke-width=".26458">
    <path d="m57.479 67.771c0 1.1386 0.9243 2.0629 2.0629 2.0629h16.503c1.1386 0 2.0629-0.9243 2.0629-2.0629v-4.1258h-20.629z" fill="#f5f0e8"/>
    <path d="m59.542 67.771v-4.1258h16.503v4.1258c0 1.1386-0.9243 2.0629-2.0629 2.0629h-12.377c-1.1386 0-2.0629-0.9243-2.0629-2.0629z" fill="#c78c32"/>
    <circle cx="67.733" cy="78.155" r="10.743" fill="#945b10"/>
    <path d="m86.971 41.564s2.6727 16.926-11.218 12.635c-0.51651-0.1598-1.0117-0.50798-1.4654-0.94325 0 0-3.2127 7.0972-12.8 3.8961 0 0-2.8725-1.6926-3.8727-5.0694 0 0-4.9873 1.0152-6.0024-3.7245 0 0-4.5672-0.84724-4.4848-8.4724 0 0 6.2583-7.3532 8.9679-9.3184 0 0 8.1337-2.0309 8.1337-2.0309s10.827-3.0479 20.674 10.827c-1e-5 0 1.5252 1.7874 2.1685 2.1686z" fill="#2c2c2c"/>
    <path d="m76.258 37.271c-7.1906-0.85582-14.347 2.1865-17.372 8.9679-1.5538 3.4881-1.6453 7.2037-1.7868 11.099 0 0 3.5537 2.0309 8.9679-1.0152 0 0-1.0152-7.9644 0-8.9796 1.0152-1.0152 1.0152-1.0152 2.0304-2.0304 1.0152-1.0152 8.1217-8.0213 8.1217-8.0213z" fill="#945b10"/>
    <path d="m57.733 66.756c2.0304 11.842 20.304 11.842 20.304 11.842v-10.827c-6.0912 1.0152-12.03 0.73489-20.304-1.0152z" fill="#945b10"/>
    <ellipse cx="67.733" cy="74.769" rx="3.5533" ry="2.5381" fill="#f5f0e8"/>
   </g>
   <path d="m86.971 41.564s-0.50798 3.3867-1.6926 5.5773c-0.35874 0.66208-0.78558 1.2887-1.3566 1.8036-1.3641 1.2303-3.3734 1.8487-5.2928 1.6926-1.9194-0.15611-3.7093-1.1073-5.1591-2.3633-0.71512-0.62068-1.3679-1.3277-1.8487-2.1342-0.53363-0.89586-0.86621-1.8892-0.94325-2.9153-0.0608-0.81604-0.009-1.6365 0.10179-2.446 0.11087-0.80951 0.27411-1.6102 0.39775-2.4236 0.1158-0.76249 0.19547-1.5315 0.19875-2.3039 0.003-0.77237-0.0644-1.5463-0.31035-2.2708-0.24593-0.72453-0.67123-1.3857-1.2887-1.7783-0.61755-0.39265-1.3708-0.53272-2.0886-0.42394-0.71786 0.10878-1.3785 0.4622-1.9407 0.90765-0.47932 0.37952-0.899 0.82747-1.287 1.2887-0.40131 0.47525-0.77563 0.97178-1.1582 1.4561-0.23941 0.30235-0.48534 0.59924-0.74494 0.88165-0.2596 0.28242-0.5325 0.55118-0.81604 0.79464-0.29387 0.25196-0.66208 0.42558-1.0494 0.42558-0.34739 0-0.68201-0.12054-0.94834-0.33871-0.16589-0.13599-0.30126-0.303-0.40011-0.48571-0.098-0.1827-0.16199-0.38275-0.1889-0.58801-0.0304-0.2316-0.0108-0.46648 0.0138-0.69906 0.0245-0.23258 0.0572-0.46454 0.0837-0.69651 0.109-0.95834 0.0858-1.9342-0.0403-2.8898-0.1267-0.95779-0.3522-1.8982-0.67187-2.8075-0.31964-0.90927-0.73452-1.7911-1.2361-2.624-0.50152-0.83289-1.081-1.6208-1.7207-2.354-0.31964-0.36654-0.65663-0.72453-1.0139-1.0668-0.35765-0.34227-0.73016-0.67187-1.1183-0.98961-0.38817-0.31774-0.7889-0.62686-1.2059-0.90874-0.417-0.28187-0.85092-0.54245-1.3035-0.76813-0.45259-0.22568-0.92188-0.41369-1.404-0.53363-0.48208-0.11995-0.9805-0.1769-1.4704-0.15175-0.48989 0.0252-0.96787 0.13926-1.3869 0.37897-0.41905 0.23971-0.77617 0.60797-0.97397 1.0197-0.19781 0.41177-0.23367 0.86075-0.12976 1.2887 0.104 0.42795 0.34577 0.82256 0.65934 1.1228 0.31357 0.30017 0.69942 0.52464 1.1013 0.66008 0.40186 0.13544 0.82965 0.18186 1.2438 0.12513 0.41423-0.0567 0.80896-0.22131 1.1478-0.46237 0.33881-0.24106 0.63017-0.55663 0.84398-0.90765 0.42722-0.70215 0.60525-1.5244 0.5082-2.3239-0.097-0.7995-0.48044-1.561-1.0625-2.0854-0.58202-0.52464-1.3447-0.8075-2.1293-0.85582-0.78449-0.0483-1.5783 0.13599-2.2376 0.49031-0.65936 0.35436-1.1927 0.8676-1.5463 1.456-0.35328 0.58856-0.5316 1.2515-0.5753 1.9181-0.0138 0.16668-0.0203 0.33332-0.0193 0.5-3e-3 0.39275 0.0391 0.78558 0.11414 1.1728 0.075 0.38726 0.18787 0.76467 0.32816 1.1341 0.14029 0.36944 0.31036 0.72834 0.50251 1.0765s0.405 0.68747 0.63454 1.0197c0.22954 0.33224 0.47932 0.64968 0.73904 0.95834 0.25972 0.30866 0.52792 0.60907 0.80186 0.90294 0.27393 0.29387 0.55554 0.58093 0.84124 0.86257 0.2857 0.28165 0.57544 0.55772 0.86857 0.82637 0.58747 0.53727 1.1879 1.0579 1.8145 1.5528 0.31357 0.24734 0.63017 0.49686 0.94697 0.73452 0.3168 0.23765 0.6389 0.46508 0.96279 0.68747 0.32389 0.2224 0.65063 0.43893 0.97991 0.64695 0.32928 0.20802 0.66044 0.40764 0.99323 0.60252 0.33279 0.19487 0.66646 0.38383 1.0013 0.56496 0.33484 0.18113 0.6702 0.35491 1.0056 0.52136 0.67186 0.3329 1.3425 0.63454 2.0077 0.91365 0.66517 0.2791 1.3216 0.53308 1.9659 0.76759 0.64423 0.23452 1.2747 0.44863 1.8867 0.64586 0.61209 0.19723 1.2054 0.37742 1.7718 0.54245 0.56642 0.16503 1.1066 0.31255 1.617 0.44699 0.51037 0.13435 0.9877 0.25442 1.4321 0.36762 0.88819 0.2264 1.664 0.41067 2.3065 0.56225 0.64259 0.15153 1.1556 0.27054 1.5386 0.37298 0.38311 0.10239 0.6361 0.18841 0.7575 0.26036 0.12149 0.0719 0.0997 0.12976-0.10831 0.20967-0.21264 0.08-0.60252 0.1827-1.1067 0.31309-0.50424 0.13035-1.1219 0.28843-1.8323 0.48462-0.71033 0.19619-1.5001 0.43184-2.3459 0.71795-0.84586 0.28614-1.7374 0.62195-2.6498 1.0197-0.91238 0.39775-1.8341 0.84779-2.7301 1.3708-0.44644 0.26144-0.88602 0.5346-1.314 0.82201-0.4282 0.28742-0.84534 0.58911-1.2487 0.90765-0.40338 0.31854-0.79299 0.65444-1.166 1.016-0.373 0.36162-0.73234 0.74657-1.0755 1.1629-0.34318 0.41629-0.67023 0.85691-0.9697 1.324-0.29946 0.46709-0.57054 0.96242-0.81386 1.4957-0.24333 0.53327-0.45803 1.0972-0.63945 1.6974-0.18142 0.60016-0.32962 1.237-0.44208 1.9144-0.11246 0.67735-0.18922 1.396-0.23477 2.1605-0.0456 0.76468-0.0597 1.5768-0.0456 2.4407-4e-3 0.0423-0.0136 0.0846-0.0138 0.12713 1.5538 0.33807 3.1371 0.42857 4.6812 0.49503 0.28088 0.0108 0.5618 0.0108 0.84232 0.0108 3.1416 0 6.2218-0.21155 9.1889-0.62722 1.483-0.20749 2.9437-0.46619 4.3644-0.77563 1.4206-0.30944 2.8022-0.67242 4.1238-1.0765 1.3216-0.40447 2.5825-0.8483 3.7599-1.3252 1.1773-0.47689 2.2714-0.98528 3.2649-1.5167 0.99356-0.53144 1.8867-1.0856 2.6696-1.6502 0.78295-0.56448 1.4557-1.1384 1.9998-1.7109 0.54409-0.57254 0.96114-1.1445 1.2388-1.7087 0.34956-0.7112 0.3626-1.4321 0.19005-2.0913-0.1723-0.65934-0.51487-1.2688-0.96606-1.7542-0.45119-0.48544-1.0094-0.84779-1.5815-1.1013-0.57199-0.25359-1.15-0.39328-1.6926-0.43458z" fill="#2c2c2c" stroke-width=".26458"/>
   <path d="m36.239 36.756 0.13436-2.3975c0.19619-1.6794 1.8487-4.9873 8.8018-6.2583 1.9686-0.3397 11.926-0.84724 22.249 4.9867 0 0 7.9887 3.1186 15.302 1.6926 0 0 4.8668-1.189 6.5145-0.84724 1.6468 0.34082 1.0152 5.2444 0 5.9218-2.8628 1.6926-13.605 6.7732-30.14-2.5467-6.9364-3.8961-9.9837-0.67732-15.978 0.33866-0.68012 0.11535-7.1963 1.1861-6.8749-0.84724z" fill="#2c2c2c" stroke-width=".26458"/>
  </g>
 </g>
</svg>